<svg xmlns="http://www.w3.org/2000/svg" width="239.999" height="223.884" style=""><rect id="backgroundrect" width="100%" height="100%" x="0" y="0" fill="none" stroke="none"/><g class="currentLayer" style=""><title>Layer 1</title><path d="M132.44543940835402,16.3398787987372 a11.92703832447386,12.727815788215038 0 0 1 -0.1747449801027567,-1.4839251895717385 c-0.4548916942357477,-6.988458854878071 4.474950813213448,-13.048477813887121 11.02280239568817,-13.540817354842105 c6.555248195389123,-0.4874062790215687 12.232148607192958,4.780330813480765 12.689814031271608,11.768789668358835 s-4.4740262365991486,13.048477813887121 -11.021877819073868,13.540817354842105 c-0.4142103232065342,0.033546181147233504 -0.8247223399558673,0.03946609546733354 -1.225988590562197,0.02269300489371678 c-0.26535348830418637,0.07301227661456697 -0.4243806659638378,0.1075451101484837 -0.6527510896960127,0.3226353304454515 c-0.6740163518249187,1.1208371112722701 1.7141650429127557,0.9116668052954031 0.09060850820142954,5.810395905178168 c0,0 -0.01109491937160361,0.5377255507424185 -0.19138735916016225,1.075451101484837 c-0.12759157277344146,1.88055944901844 -0.805306231055561,7.453172129005923 -0.9023867755570921,10.421022508149393 c0.34486707713401227,0.43018044059393495 0.4419476216355433,0.6393507465708026 0.40403998044923134,1.6822423192950897 c-0.15347971797385,1.409926260570488 -0.4567408474643485,4.865182918735532 -0.9439927232006059,7.079230874452939 c-0.41328574659223416,1.8973325395920562 -1.1390783888179685,2.25943396550484 -1.7243353856700592,2.7241472396326922 c-0.8228731867272668,3.930823108546412 -1.040148691087837,7.1867759846014225 -3.150957101535421,11.961186883762085 c-0.19138735916016225,3.6190409543544786 -0.4299281256496398,4.604706688651133 -1.14092754204657,6.371801113200988 c-0.0795135888298259,5.328909540476699 0.26535348830418637,6.122178059370102 -3.1038036942061047,14.560029270285995 c-0.8700265940565826,3.946609546733345 -0.042530524257813854,6.676676700686136 0.8755740537423851,10.777204019742083 c0.9393698401291046,4.2139923435245334 3.5448267392273483,5.975166853754285 3.932224340619173,10.290784393107197 c0.9125571183143947,10.163506235225045 0.6841866945822228,17.082899423035286 -1.3591276230214404,25.052090750276594 l1.7835082889852782,4.507028102369478 c2.2134364146349172,1.0833443205783038 7.705421503578696,4.045274785401678 4.659866136073509,8.733846926920894 c4.289110913739089,2.4054585187339743 10.767619250141287,4.959901547857132 16.111672080797018,9.837910947619545 c2.1496406282481955,1.9101590206189398 4.420400792969731,3.992982208907463 6.45816765088759,6.437906823108769 c3.879523473604055,0.6452706608909026 3.465313150397522,0.9738259056564522 6.3407464208714535,2.859318616608309 c8.45525313777624,5.5321599321334665 22.014169186490122,16.506694429212217 29.87399498465697,24.276581974343493 c1.3535801633356388,0.8435877906142533 1.905552402072917,1.451365660811188 2.9984019601758707,2.063090140554856 c0.17104667364555565,0.34927494488590166 0.21727550436057055,0.43018044059393495 0.17936786317425835,0.5248990697155346 c-0.3753781054059218,1.0142786535104695 -0.36150945619141767,1.04387822511097 -0.7008290736396279,1.8519465298046227 c0.4243806659638378,0.5002327600484516 1.2148936711905935,0.9679059913363529 1.6873523210980468,1.4059796510237543 c0.4419476216355433,0.1470112056158174 0.4419476216355433,-0.07893219093466704 1.2001004453617887,-0.2772493206580178 c0.9865232474584199,0.9856657342966527 2.2088135315634148,1.7799209055767395 2.6470628467417576,1.733548243402623 c1.3378623608925333,-0.3621014259127853 1.1094919371603593,-0.06709236229446705 2.240249136449625,-1.416832827277272 c0.4068137102921325,-0.44695353116755177 1.0882266750314522,0.005919914320100025 1.0882266750314522,0.005919914320100025 c0.4243806659638378,-0.5318056364223187 1.336937784278233,-1.591470299720222 2.5536806086974266,-2.3571125517864906 c0.9708054450153141,-0.6107378273569859 2.823656980073115,-0.6788168420381365 2.823656980073115,-0.6788168420381365 c0.6203909081955016,0.005919914320100025 0.5038942547936636,0.6847367563582367 0.45026881116424644,0.9057468909753028 c-0.7008290736396279,0.38578108319318527 -2.1856991162059076,0.8100416094670195 -3.019667222304777,1.466165446611438 c-1.815868470485789,2.0038909973538557 -3.2378673032796486,4.707318536866198 -3.2378673032796486,4.707318536866198 c3.655775932943384,-0.5327922888090019 5.9015725290788135,0.43511370252735204 8.948052473198297,0.0621591003610503 c1.661464175897639,-0.10261184821506712 2.8874527664598357,0.011839828640200056 4.6321288376445,-1.3359273315692382 c0,0 1.6771819783407436,-1.2737682312081875 3.1796189765787286,-1.949625116086273 c1.458981897365873,-0.6788168420381365 2.8439976655877217,-0.31671541612535165 4.128234582850837,0.6788168420381365 c0.9070096586285943,1.0922241920584532 1.453434437680071,1.0981441063785533 0.07396612914402403,2.640281786764608 c-0.49834679510786173,0.5988979987167856 -1.2204411308763956,1.2678483168880874 -2.1376211322622924,2.236740960611123 c-1.613386191954023,1.7009887146420737 -3.7852166589454272,3.968315899240379 -6.033786984923755,5.844928738712086 c-2.2772322010216373,1.8973325395920562 -4.861423837990972,3.6012812113941783 -6.474810029944997,4.38270990164738 c-4.069986256149917,3.120781499079393 -3.109351153891906,2.304819975292274 -6.309310815985242,5.397975207544532 c-0.40403998044923134,0.38578108319318527 -1.4756242764232779,1.075451101484837 -1.9952363336600458,1.4434724417177216 c-1.262047078519909,0.8840405384682701 -1.6559167162118376,0.1470112056158174 -2.478789902939102,-1.4720853609315376 c0,0 -0.3763026820202223,-0.6048179130368859 -0.9976181668300226,-1.8973325395920562 c-0.6786392348964203,-1.409926260570488 -1.188080949375885,-3.0221162604110585 -0.981900364386918,-2.9954766459706095 c-0.7581528237262457,-0.10261184821506712 -4.171689683722951,-4.372843377780547 -4.1800108732516525,-5.288456792622682 c-0.7220943357685348,-0.1766107772163175 -3.8009344613885316,-3.357578071883393 -3.910959078490267,-3.965355942080328 l-2.7275010121858836,-2.3334328945060916 c-3.12044607326351,0.6916433230650195 -3.8360683727319427,-1.3763800794232544 -12.07774431260481,-7.616956425195357 c-0.9402944167434045,-0.017759742960300074 -2.3928042778091747,-0.559431903249452 -4.474950813213448,-2.2071413890106237 c-3.7186471427158048,-3.1789939898937094 -12.64081147071369,-10.370703236428545 -14.153418811708981,-11.192584674535768 c-1.6244811113256266,-0.8830538860815867 -3.5651674247419542,-1.7148018480556386 -4.756022103960738,-2.7636133351000236 c-1.7835082889852782,-0.3502615972725852 -2.7589366170720933,-0.5495653793826184 -3.651153049871881,-0.8149748714004362 c-0.9116325417000957,-0.26639614440450093 -1.7409777647274647,-0.6107378273569859 -4.048720994021012,-0.9402797245092195 c-3.7565547839021165,-0.498259455275085 -7.6527206365635765,-2.1578087696764565 -11.36212201313638,-4.139006762136596 c-1.755770990556269,-0.8879871480150036 -3.285020710608964,-1.3408605935026554 -4.796703474989951,-2.03447722134104 c-3.3913470212534977,-1.5283245469724889 -6.29914047322794,-2.904704626395742 -8.552333682277768,-3.4601899200984603 c-0.8598562512992786,-0.09077201957486725 -4.946484886506602,-1.399073084316972 -7.089653478454695,-2.7340137634995254 c-0.7433595978974404,-0.4084740880869017 -1.1732877235470802,-0.799188433213503 -1.661464175897639,-0.9185733720021863 c-1.1252097396034646,-0.2762626682713344 -1.8473040753719985,0.1983171297233509 -2.3558212132371628,0.38084782125976835 c-2.7487662743147903,1.5283245469724889 -5.322787568526824,2.8484654403547927 -7.700798620507193,4.2139923435245334 c-2.2134364146349172,1.2629150549546708 -4.251203272552777,2.575162729243508 -6.411014243558275,3.9022101893325947 c-1.9480829263307313,1.2007559545936204 -4.198502405537659,2.332446242119407 -6.511793094517008,3.511495844205994 c0,0 -6.596854143032636,3.528268934779611 -10.199929208960903,4.899715752269448 c-3.1259935329493125,2.723160587246008 -9.51574251437868,7.43442573365894 -13.415606673497342,9.767858628165026 c-1.9314405472733254,0.9797458199765534 -5.683372448103939,3.5164291061394115 -7.4141798700741015,4.083754228482329 c-0.98744782407272,0.8485210525476697 -4.505461841485357,3.527282282392928 -7.259775575485952,5.736396976176916 c-2.1283753661192892,1.6990154098687054 -3.7362140983875114,3.1316346753329096 -3.7362140983875114,3.1316346753329096 c-1.2361589333195009,1.18299621163332 -1.1520224614181729,1.7444014196561393 -3.5022962149695345,0.6788168420381365 c-0.6527510896960127,0.572258384276336 -1.1566453444896747,0.9284398958690202 -1.5764031273820107,1.256995140634571 c-1.6975226638553507,1.3142209790622041 -1.841756615686197,0.9975055629368526 -2.462147523881698,0.9629727294029358 c-1.1834580663043834,1.0932108444451367 -1.3323149012067312,0.5278590268755847 -2.366916132608767,1.785840819896838 c-0.6795638115107215,1.122810416045637 0.01571780244310512,0.8544409668677702 -1.4173759497223586,1.399073084316972 c-0.3023365528761983,0.12431820072210052 -0.4456459280927449,0.5140458934620186 -0.6786392348964203,0.7301227661456698 c-1.1520224614181729,1.012305348737103 -1.1566453444896747,3.8735972701187795 -3.9165065381760673,4.077834314162229 c-1.597668389510918,1.2165423927805539 -1.1890055259901846,2.6856677965520412 -2.409446656866581,2.6215353914176247 c0.07489070575832439,1.2619284025679873 -2.1598109710054993,3.1040084085057753 -2.56292637484043,3.0980884941856766 c-3.5189385940269395,1.2954745837152213 -3.763026820202218,-1.4651787942247547 -7.987417370940287,0.5949513891700525 c-0.5464247790514767,0.2673827967911846 -1.348032703649837,1.0044121296436364 -2.403899197180778,1.2175290451672376 c-1.857474418129302,0.373941254552985 -4.102346437650429,-0.017759742960300074 -5.471644403429172,-1.149450030486087 c-2.1551880879339986,-1.773014338869956 -4.139329502222441,-5.1937381635010835 -4.139329502222441,-5.1937381635010835 c-0.6851112711965227,-1.727628329082523 -0.2866187504330934,-2.8198525211409757 1.8519269584435,-4.452762221101899 c0.8912918561854891,-0.6048179130368859 1.0558664935309419,-1.0576913585245362 2.552756032083127,-1.1672097734463867 c0.7433595978974404,-0.2999423255517348 0.5408773193656754,0.1588510342560174 1.8685693375009054,-0.34927494488590166 c0.7692477430978495,-0.29500906361831786 0.7692477430978495,-0.08485210525476707 2.318838148665151,-0.22594339655048426 c0.35503741989131565,-0.2555429681509842 0.8543087916134773,-0.34631498772585145 1.5227776837525933,-0.5781782985964354 c1.225988590562197,-0.43116709298061867 2.4205415762381843,-0.9116668052954031 2.4205415762381843,-0.9116668052954031 s0.3125068956335016,-0.3344751590856519 1.4913420788663831,-0.21509022029696753 c0.9976181668300226,-0.4361003549140352 2.0220490554747546,-1.0833443205783038 2.5472085723973246,-1.281661450301654 c-0.13313903245924325,-1.6861889288418228 0.036983064572012024,-1.607256737907155 0.7692477430978495,-2.2860735799452905 c0.9125571183143947,-0.8396411810675198 1.0771317556598485,-0.7024964993185363 1.7566955671705684,-0.1825306915364175 c0.2866187504330934,-0.1766107772163175 0.4243806659638378,-0.23679657280400088 0.3929450610776277,-0.4933261933416685 c-0.11187377033033634,-0.8781206241481703 -0.8173257270414649,-1.2915279741684873 -0.6046731057523964,-3.2273399568411927 c-0.3134314722478023,-0.7755087759331035 -0.7747952027836518,-1.732561591015939 -0.6740163518249187,-2.310739889612374 c0.14885683490234838,-0.6235643083838697 0.29216621011889504,-0.924493286322287 0.6472036300102103,-1.122810416045637 c0.3772272586345228,-0.21410356791028434 0.499271371722162,0.07498558138793364 0.7008290736396279,0.31671541612535165 c0.3605848795771173,0.44794018355423515 0.6527510896960127,1.774000991256639 0.6527510896960127,1.774000991256639 c0.12759157277344146,1.4957650182119382 0.5621425814945824,3.432563653271327 1.9471583497164306,2.3393528088261912 c0.8173257270414649,-0.8840405384682701 0.9763529047011168,-3.239179785481393 2.642439963670256,-2.73500041588621 l1.1890055259901846,1.1030773683119701 c1.008713086201626,-1.012305348737103 1.056791070145242,-1.012305348737103 1.661464175897639,-1.4197927844373217 c0,0 -0.944917299814906,-1.0192119154438861 -0.11649665340183783,-1.812480434337289 c0.5676900411803841,-0.5387122031291021 1.2518767357626055,-0.924493286322287 2.4676949835674993,-2.3620458137199076 c3.3377215776240807,-3.93575637047983 5.051886620536835,-5.67522452820255 8.661433722765207,-8.847311951389475 c7.201527248785034,-6.320495189093451 15.395125204714283,-10.753524362461683 20.601416119839268,-12.957705794312256 c1.6975226638553507,-2.299886713358857 3.348816496995683,-3.828211260331346 7.116466200269404,-4.2139923435245334 c4.478649119670652,-8.07081652306969 13.055021793920224,-15.278312207791462 15.024369982379863,-16.42776223827755 c1.6022912725824194,-3.0990751465723596 2.2975728865362437,-2.769533249420125 4.393588071155022,-3.3921109054173106 c1.660539599283339,-1.4207794368240048 2.0377668579178603,-1.4207794368240048 2.781126455815302,-2.904704626395742 c0.7220943357685348,-3.062569008265075 -1.6660870589691403,-11.246850555803348 4.4305711357270345,-11.660257905823666 c1.2953318366347197,-1.952585073246323 0.9717300216296151,-1.4839251895717385 2.4149941165523816,-3.3299518050562598 c-0.9763529047011168,-2.5712161196967744 -1.379468308536047,-4.722118322666447 -1.6448217968402332,-6.575051504857754 c-0.04807798394361564,-0.21509022029696753 -2.4196169996238828,-1.9989577354204395 -1.7465252244132663,-4.327457367993113 c-1.007788509587326,-1.2796881455282874 -2.8920756495313373,-4.266284920018747 -3.481030952840628,-5.665358004335716 c-0.26997637137568764,0.005919914320100025 -0.4937239120363603,-0.10261184821506712 -0.7905130052267567,-0.14602455322913396 c-0.3078840125620005,-0.05229257649421693 -0.6906587308823247,-0.033546181147233504 -1.1196622799176628,-0.07301227661456697 c-0.9495401828864073,2.614628824710841 -1.9841414142884426,2.808999344887459 -3.672418312000789,3.3861909910972092 c-3.0141197626189746,6.85526078267582 -4.0755337158357205,9.757005451911512 -12.603828406141682,15.424336761020598 c-3.385799561567697,4.045274785401678 -4.468478776913345,8.552302887771159 -4.452760974470242,8.48521052547669 c-0.5834078436234897,1.3359273315692382 -0.3772272586345228,3.2056336043341593 -0.06934324607252251,4.208072429204429 c-0.4456459280927449,1.4839251895717385 -0.32914927469090727,1.630936395187555 -0.32914927469090727,1.630936395187555 c0.1858398994743604,0.5604185556361353 0.6693934687534174,1.302381150422004 1.2629716551342087,1.460245532291338 c1.0244308886447313,0.28908914929821783 2.048861777289463,0.24271648712410088 1.9896888739742449,1.460245532291338 c-0.13776191553074485,1.5233912850390712 -2.010954136103151,1.2737682312081875 -2.8976231092171396,1.1040640206986532 c-3.4126122833824053,-0.5781782985964354 -2.334555951108257,-2.9510772885698584 -4.516556760856964,-2.15879542206314 c-1.671634518654941,1.1672097734463867 -2.2975728865362437,4.61062660297123 -5.025998475336428,4.16367307180368 c-0.3605848795771173,-0.25455631576430077 -0.24963568586108106,-1.0073720868036862 -0.00554745968580181,-1.5510175518662053 c0.38277471832032456,-0.8495077049343529 1.061413953216744,-1.5520042042528879 0.6582985493818145,-1.8706929251516065 a539.8159054124584,576.0589692698394 0 0 0 -5.328335028212625,1.8529331821913066 c-1.671634518654941,0.48641962663488525 -3.5032207915838343,-0.40255417376680225 -1.857474418129302,-1.5756838615332882 c0.764624860026348,-0.31671541612535165 1.857474418129302,-0.7143363279587364 3.2055071217791373,-1.635869657120972 c0,0 0.6943570373395257,-1.0083587391903694 -0.6370332872529076,-0.5041793695951853 c-1.454359014294371,0.5544986413160349 -3.598452182856766,0.8998269766552036 -5.136947669052463,0.7192695898921526 c0,0 -3.189789319336033,-0.44695353116755177 -3.598452182856766,-0.7143363279587364 c-0.4142103232065342,-0.2673827967911846 -0.7905130052267567,-1.3191542409956214 0.20710516160326717,-1.313234326675521 c1.2629716551342087,0.011839828640200056 4.425948252655532,-0.38578108319318527 6.877925433779927,-1.0823576681916203 c1.1834580663043834,-0.4923395409549848 3.433877545511311,-1.9131189777789892 4.696849200645523,-2.5820692959502907 c0,0 1.3692979657787436,-2.1291958504626396 2.1228279064334887,-2.5485231148030585 c1.257424195448408,-1.5450976375461043 2.318838148665151,-2.4577510952281907 3.432952968897011,-4.038368218694896 c1.0882266750314522,-2.396578647253824 2.2134364146349172,-6.189270421664569 5.816511480563184,-12.06281207959047 c1.6660870589691403,-2.707374149059076 3.7362140983875114,-5.860715176899019 6.341670997485753,-8.680567698039996 c0,0 0.6740163518249187,-4.512948016689581 4.065363373078416,-7.7245015353438395 c0.748907057583243,-1.88055944901844 1.8842871399440102,-4.0946074047358465 3.0039494198616725,-6.144871064263818 c0.43547558533544156,-0.7873486045733028 0.8487613319276751,-1.4720853609315376 1.2629716551342087,-2.219967870037508 c1.0512436104594403,-1.7611745102297565 2.1551880879339986,-5.039820391178481 6.251987065898626,-5.555839589413868 c0,0 1.7511481074847677,-1.3813133413566718 2.425164459309686,-2.3630324661065902 c1.0512436104594403,-0.957052815082836 0.8117782673556634,-2.445911266587991 1.6660870589691403,-3.4947227536323773 c-1.3055021793920234,-1.3586203364629543 -4.643223757016107,-3.9130633655861136 -4.96775014863551,-7.464025305259442 c-0.34486707713401227,-3.766052159970295 0.9125571183143947,-6.864140654155972 3.0464799441194854,-9.157120800808045 c2.366916132608767,-2.525830109909342 4.861423837990972,-3.7887451648640127 7.891261403053054,-3.5963479494607613 c3.7833675057168255,0.599884651103469 4.4999143817995595,1.9367986350593895 5.704637710232848,3.2618727903751097 c1.1566453444896747,1.256995140634571 1.5865734701393148,0.44794018355423515 2.074749922489872,1.9200255444857726 c3.1740715168929277,0.9008136290418863 2.9984019601758707,0.5041793695951853 2.9715892383611626,2.996463298357292 c0.48817645235055845,0.7015098469318533 1.3055021793920234,1.3536870745295386 1.294407260020419,2.808999344887459 c1.066961412902545,-2.3620458137199076 1.278689457577314,-2.797159516247259 4.129159159465138,-5.396988555157851 c0.6740163518249187,-2.1124227598890233 1.1316817759035669,-4.190312686244128 1.7234108090557592,-6.302735446133153 c0.55567054519448,-1.953571725633006 1.246329276076804,-3.964369289693646 1.7816591357566773,-5.4769073984792 c-0.5676900411803841,-4.270231529565479 0.5982010694522945,-4.977661290817433 2.154263511319697,-8.72102044589401 c-0.27552383106148953,-0.5150325458487016 -0.2163509277462703,-0.6620437514645199 -0.09985427434443245,-1.5066181944654549 c0.6046731057523964,-2.474524185801808 1.5495904055673024,-5.74823680481712 2.1117329870618837,-7.883352569599858 c0,0 0.1858398994743604,-0.8495077049343529 1.008713086201626,-0.9116668052954031 c0.7119239930112315,-2.701454234738975 1.7788854059137762,-7.73042144966394 1.9582532690880337,-8.755553279427927 c0.7322646785258379,-2.8257724354610745 0.2598060286183842,-3.7325059788230606 -0.3023365528761983,-5.323976278543283 c-0.18029243978855855,-0.5209524601688016 -0.09615596788723137,-1.2629150549546708 -0.4077382869064325,-1.8410933535511058 c-0.8866689731139881,-1.6477094857611723 -1.8408320390718962,-3.7887451648640127 -2.488035669082106,-5.3180563642231835 c-0.4197577828923363,-0.9738259056564522 -1.0836037919599504,-4.644172784118464 -1.0836037919599504,-4.644172784118464 c-0.5695391944089847,-1.8736528823116556 -0.07581528237262468,0.0009866523866833394 -0.07581528237262468,0.0009866523866833394 " id="svg_1" class="selected" fill="#ffffff" fill-opacity="1"/></g></svg>